<?xml version="1.0" standalone="no"?>
<!DOCTYPE svg PUBLIC "-//W3C//DTD SVG 20010904//EN"
 "http://www.w3.org/TR/2001/REC-SVG-20010904/DTD/svg10.dtd">
<svg version="1.0" xmlns="http://www.w3.org/2000/svg"
 width="358.000000pt" height="358.000000pt" viewBox="0 0 358.000000 358.000000"
 preserveAspectRatio="xMidYMid meet">
<metadata>
Created by potrace 1.14, written by Peter Selinger 2001-2017
</metadata>
<g transform="translate(0.000000,358.000000) scale(0.100000,-0.100000)"
fill="#000000" stroke="none">
<path d="M0 1790 l0 -1790 1790 0 1790 0 0 1790 0 1790 -1790 0 -1790 0 0
-1790z m1850 820 l0 -180 575 0 575 0 0 -182 0 -182 -417 -418 -418 -418 418
0 417 0 0 -180 0 -180 -705 0 -705 0 0 182 0 183 417 417 418 418 -288 0 -287
0 0 -180 0 -180 -390 0 -390 0 0 -420 0 -420 -180 0 -180 0 0 960 0 960 570 0
570 0 0 -180z"/>
<path d="M1070 2250 l0 -180 380 0 380 0 0 180 0 180 -380 0 -380 0 0 -180z"/>
</g>
</svg>
